<?xml version="1.0" encoding="UTF-8" standalone="no"?>
<!-- Created with Inkscape (http://www.inkscape.org/) -->

<svg
   xmlns:dc="http://purl.org/dc/elements/1.1/"
   xmlns:cc="http://creativecommons.org/ns#"
   xmlns:rdf="http://www.w3.org/1999/02/22-rdf-syntax-ns#"
   xmlns:svg="http://www.w3.org/2000/svg"
   xmlns="http://www.w3.org/2000/svg"
   xmlns:inkscape="http://www.inkscape.org/namespaces/inkscape"
   version="1.1"
   width="562.5"
   height="117.5"
   id="svg2"
   xml:space="preserve"><metadata
     id="metadata8"><rdf:RDF><cc:Work
         rdf:about=""><dc:format>image/svg+xml</dc:format><dc:type
           rdf:resource="http://purl.org/dc/dcmitype/StillImage" /></cc:Work></rdf:RDF></metadata><defs
     id="defs6" /><g
     transform="matrix(1.25,0,0,-1.25,0,117.5)"
     id="g10"><g
       transform="scale(0.1,0.1)"
       id="g12"><path
         d="m 2002.89,655.93 8.52,-5 183.98,102.5 18.01,11.992 5,-3 5,3 17.5,-11.992 184.02,-102.5 8.48,5 -200.51,112.5 -14.49,8.992 -15,-8.992 -200.51,-112.5 m 430.51,0 461.99,268.992 261.02,-145.512 0,15 -261.02,145.512 -470.47,-273.992 -184.02,102.5 -17.5,11.992 -5,-3 14.49,-8.992 200.51,-112.5 m -473.01,-24.02 -286.99,-161.488 11.99,-8 288.01,161.988 -13.01,7.5 m 1445,246.012 -248.98,0 0,-15 248.98,0 0,15 m 271.52,-417.5 11.49,8.008 -283.01,171.492 0,-15 271.52,-164.5 m -2396.99,417.5 -249.02,0 0,-15 249.02,0 0,15 m 1470.98,-415.5 11.99,8 -286.99,161.488 -13.01,-7.5 288.01,-161.988 m -1720,177.5 -283.009,-171.492 11.519,-8.008 271.49,164.5 0,15 m 249.02,139.488 0,15 260.98,145.512 470.51,-273.992 183.98,102.5 18.01,11.992 5,-3 -15,-8.992 L 2002.89,655.93 1540.9,924.922 1279.92,779.41"
         inkscape:connector-curvature="0"
         id="path14"
         style="fill:#0a2375;fill-opacity:1;fill-rule:evenodd;stroke:none" /><path
         d="m 2218.4,762.422 -15,-8.992 -216.49,-122.032 22.5,-12.968 203.99,114.492 5,-3 5,3 203.51,-114.492 23.01,12.968 -217.03,122.032 -14.49,8.992 m -208.99,-143.992 -22.5,12.968 -13.51,-6.988 28.01,-16.488 216.99,122 -5,3 -203.99,-114.492 m 213.99,114.492 -5,-3 216.52,-122 27.97,16.488 -12.97,6.988 -23.01,-12.968 -203.51,114.492 m 203.51,-129.492 8.01,4.492 -216.52,122 -216.99,-122 8,-4.492 203.99,114.492 5,-3 5,3 203.51,-114.492 m -186.01,150 -17.5,11.992 -5,-3 14.49,-8.992 217.03,-122.032 12.97,8.012 -29.49,16.52 -8.48,-5 -184.02,102.5 M 2001.41,607.922 1973.4,624.41 1685.39,462.422 1710.9,444.41 2001.41,607.922 m 1675.5,-147.5 -271.52,164.5 0,238 -248.98,0 0,-83.512 -261.02,145.512 -461.99,-268.992 29.49,-16.52 434.53,253.012 314.49,-176.492 0,126.492 136.49,0 0,-217 302.5,-183.512 26.01,18.512 m -1226.99,170.976 12.97,-6.988 13.01,7.5 -13.01,7.5 -12.97,-8.012 m 761.99,211.024 0,-15 136.49,0 0,15 -136.49,0 m -1202.5,-238.992 -8,4.492 -290.51,-163.512 -25.51,18.012 -11.99,-7 37.5,-26.012 507.5,285.512 -5,3 -203.99,-114.492 m 453.48,35.98 13.01,-7.5 421.52,245.512 314.49,-176.492 0,15 -314.49,176.492 -434.53,-253.012 m 1188.01,-197.5 -302.5,183.512 0,-15 302.5,-183.512 37.5,26.52 -11.49,6.992 -26.01,-18.512 m -1432.5,320.512 -5,3 -18.01,-11.992 -183.98,-102.5 -8.52,5 -29.49,-16.52 13.51,-8.012 216.49,122.032 15,8.992 m -231.49,-131.024 -13.51,8.012 -13.01,-7.5 13.01,-7.5 13.51,6.988 m 448.01,-23.476 290.47,-163.512 25.51,18.012 -288.01,161.988 -27.97,-16.488 m -461.52,31.488 29.49,16.52 -461.99,268.992 -260.98,-145.512 0,83.512 -249.02,0 0,-238 -271.49,-164.5 25.981,-18.512 302.499,183.512 0,217 136.52,0 0,-126.492 314.5,176.492 L 1973.4,639.41 M 759.41,460.422 l -11.519,-6.992 37.5,-26.52 302.499,183.512 0,15 L 785.391,441.91 759.41,460.422 m 1675.51,147.5 -8.01,-4.492 -203.51,114.492 -5,-3 506.99,-285.512 37.5,26.012 -11.99,7 -25.51,-18.012 -290.47,163.512 m -896.01,284.5 -314.5,-176.492 0,-15 314.5,176.492 421.48,-245.512 13.01,7.5 -434.49,253.012 m -314.5,-50 0,-15 -136.52,0 0,15 136.52,0"
         inkscape:connector-curvature="0"
         id="path16"
         style="fill:#b3b5ae;fill-opacity:1;fill-rule:evenodd;stroke:none" /><path
         d="m 0.078125,23.8984 0,357.4996 199.370875,0 0,-49.367 -141.3982,0 0,-89.07 141.3982,0 0,-51.09 -141.3982,0 0,-167.9726 -57.972675,0 z m 475.972875,0 -52.961,0 0,30 C 413.59,40.5391 402.539,30.6211 389.961,24.0586 377.34,17.6094 362.93,14.3711 346.68,14.3711 c -32.731,0 -58.52,11.168 -77.34,33.5898 -18.75,22.3907 -28.129,53.0081 -28.129,91.8791 0,36.949 9.57,66.789 28.75,89.531 19.258,22.688 44.379,34.059 75.309,34.059 18.832,0 35,-3.981 48.441,-11.871 13.437,-7.93 23.199,-19.297 29.379,-34.071 l 0,37.821 52.961,0 0,-231.4106 z M 424.488,140.309 c 0,23.941 -5.578,42.57 -16.718,55.929 -11.168,13.321 -26.719,20 -46.719,20 -20,0 -35.742,-6.867 -47.18,-20.617 -11.492,-13.75 -17.191,-32.812 -17.191,-57.191 0,-24.61 5.511,-43.5511 16.558,-56.8714 11.024,-13.3594 26.641,-20 46.883,-20 19.059,0 34.527,7.2226 46.399,21.7226 11.96,14.4493 17.968,33.4688 17.968,57.0278 z m -92.187,150.152 46.41,66.41 54.84,0 -71.25,-66.41 -30,0 z m 269.34,-150.152 c 0,-23.559 6.019,-42.5785 18.129,-57.0278 12.07,-14.5 27.73,-21.7226 47.031,-21.7226 20,0 35.469,6.6406 46.398,20 11.02,13.3203 16.571,32.2614 16.571,56.8714 0,24.379 -5.75,43.441 -17.192,57.191 -11.488,13.75 -27.269,20.617 -47.348,20.617 -20,0 -35.621,-6.679 -46.871,-20 -11.168,-13.359 -16.718,-31.988 -16.718,-55.929 z m 1.558,262.031 0,-184.852 c 6.25,14.692 16.141,25.981 29.692,33.91 13.629,8.012 29.879,12.032 48.75,12.032 30.699,0 55.66,-11.371 74.839,-34.059 19.141,-22.742 28.75,-52.582 28.75,-89.531 0,-38.871 -9.449,-69.4884 -28.281,-91.8791 -18.75,-22.4218 -44.488,-33.5898 -77.179,-33.5898 -16.372,0 -30.86,3.2383 -43.442,9.6875 -12.617,6.5625 -23.668,16.4805 -33.129,29.8398 l 0,-30 -52.969,0 0,378.4416 52.969,0 z m 291.02,-183.91 c 5.703,15.308 13.281,26.601 22.66,33.91 9.371,7.379 20.973,11.09 34.84,11.09 7.5,0 14.84,-0.942 22.031,-2.809 7.27,-1.801 14.41,-4.34 21.41,-7.66 l -19.07,-45 c -4.61,3.211 -9.531,5.629 -14.84,7.187 -5.23,1.563 -11.09,2.34 -17.66,2.34 -17.61,0 -30.27,-7.027 -37.969,-21.09 -7.609,-14.058 -11.402,-37.726 -11.402,-70.937 l 0,-101.5626 -52.969,0 0,231.8826 52.969,0 0,-37.351 z m 126.091,137.031 c 0,8.949 3.28,16.641 9.85,23.129 6.56,6.558 14.41,9.84 23.59,9.84 9.37,0 17.19,-3.121 23.44,-9.371 6.33,-6.25 9.53,-14.137 9.53,-23.598 0,-9.492 -3.2,-17.461 -9.53,-23.902 -6.37,-6.368 -14.18,-9.528 -23.44,-9.528 -9.18,0 -17.03,3.278 -23.59,9.84 -6.57,6.559 -9.85,14.41 -9.85,23.59 z m 7.03,-331.5626 0,231.4106 52.97,0 0,-231.4106 -52.97,0 z m 302.31,165.4726 c -8.13,8.938 -17.62,15.777 -28.44,20.469 -10.86,4.762 -22.58,7.191 -35.16,7.191 -21.56,0 -38.86,-7.043 -51.87,-21.101 -13.05,-13.981 -19.53,-32.5 -19.53,-55.621 0,-24.071 6.48,-42.9692 19.53,-56.7192 13.12,-13.75 31.25,-20.6289 54.37,-20.6289 12.82,0 24.26,2.3907 34.38,7.1875 10.08,4.7735 18.98,12.0704 26.72,21.8828 l 0,-61.1015 c -9.81,-5.5508 -20.27,-9.6094 -31.41,-12.3399 -11.17,-2.8086 -22.97,-4.2187 -35.47,-4.2187 -36.36,0 -66.01,11.5586 -88.9,34.6875 -22.82,23.1211 -34.22,53.0434 -34.22,89.8394 0,37.274 11.8,67.34 35.47,90.161 23.75,22.89 54.72,34.371 92.97,34.371 12.07,0 23.12,-1.211 33.12,-3.59 10.08,-2.309 19.57,-5.899 28.44,-10.781 l 0,-59.688 z m 272.38,-165.4726 -52.97,0 0,30 c -9.49,-13.3593 -20.54,-23.2773 -33.12,-29.8398 -12.62,-6.4492 -27.03,-9.6875 -43.28,-9.6875 -32.74,0 -58.52,11.168 -77.35,33.5898 -18.75,22.3907 -28.12,53.0081 -28.12,91.8791 0,36.949 9.57,66.789 28.75,89.531 19.26,22.688 44.37,34.059 75.31,34.059 18.83,0 35,-3.981 48.44,-11.871 13.43,-7.93 23.2,-19.297 29.37,-34.071 l 0,37.821 52.97,0 0,-231.4106 z m -51.56,116.4106 c 0,23.941 -5.59,42.57 -16.72,55.929 -11.17,13.321 -26.72,20 -46.72,20 -20,0 -35.74,-6.867 -47.19,-20.617 -11.48,-13.75 -17.18,-32.812 -17.18,-57.191 0,-24.61 5.5,-43.5511 16.56,-56.8714 11.01,-13.3594 26.64,-20 46.87,-20 19.07,0 34.53,7.2226 46.41,21.7226 11.95,14.4493 17.97,33.4688 17.97,57.0278 z m 443.36,0 c 0,23.941 -5.59,42.57 -16.72,55.929 -11.17,13.321 -26.72,20 -46.72,20 -20,0 -35.74,-6.867 -47.19,-20.617 -11.48,-13.75 -17.18,-32.812 -17.18,-57.191 0,-24.61 5.5,-43.5511 16.56,-56.8714 11.01,-13.3594 26.64,-20 46.87,-20 19.14,0 34.69,7.1797 46.57,21.5625 11.87,14.3672 17.81,33.4379 17.81,57.1879 z m -1.41,262.031 52.97,0 0,-378.4416 -52.97,0 0,30 c -9.49,-13.3593 -20.54,-23.2773 -33.12,-29.8398 -12.62,-6.4492 -27.03,-9.6875 -43.28,-9.6875 -32.74,0 -58.52,11.168 -77.35,33.5898 -18.75,22.3907 -28.12,53.0081 -28.12,91.8791 0,36.949 9.57,66.789 28.75,89.531 19.25,22.688 44.37,34.059 75.31,34.059 18.83,0 35,-3.981 48.44,-11.871 13.43,-7.93 23.2,-19.297 29.37,-34.071 l 0,184.852 z m 349.14,-270.469 -185,0 c 1.25,-21.68 7.66,-38.5898 19.22,-50.7812 11.56,-12.1093 26.92,-18.1289 46.1,-18.1289 17.07,0 31.28,3.5977 42.65,10.7774 11.45,7.1914 21.41,18.75 29.85,34.6917 l 44.68,-25.0003 c -13.04,-23.2383 -29.14,-40.5781 -48.28,-52.0313 -19.18,-11.3281 -41.72,-17.0273 -67.66,-17.0273 -37.1,0 -66.64,11.2891 -88.59,33.9101 -21.99,22.5704 -32.97,52.8088 -32.97,90.6168 0,36.25 11.33,66.024 34.06,89.383 22.7,23.43 51.88,35.149 87.5,35.149 37.27,0 66.33,-10.7 87.19,-32.032 20.82,-21.367 31.25,-51.207 31.25,-89.527 l 0,-10 z m -55,35.617 c -2.11,16.571 -8.44,29.141 -19.06,37.821 -10.55,8.75 -25,13.121 -43.44,13.121 -17.42,0 -31.4,-4.219 -42.03,-12.649 -10.55,-8.441 -17.93,-21.222 -22.19,-38.293 l 126.72,0 z m 245.63,-72.0271 46.4,21.4101 c 4.38,-15.941 12.39,-28.1327 24.07,-36.5624 11.75,-8.3594 26.75,-12.5 45,-12.5 17.26,0 30.97,4.7617 41.09,14.3711 10.2,9.6914 15.31,22.5393 15.31,38.6013 0,21.008 -17.42,39.758 -52.18,56.25 -4.93,2.379 -8.68,4.141 -11.26,5.309 -39.37,19.14 -65.62,36.48 -78.74,52.031 -13.13,15.617 -19.69,34.688 -19.69,57.188 0,29.062 9.88,52.57 29.69,70.621 19.76,18.129 45.7,27.191 77.81,27.191 26.33,0 48.36,-5.121 66.09,-15.312 17.81,-10.118 30.08,-24.688 36.88,-43.75 l -45.32,-23.438 c -7.18,11.25 -15.07,19.449 -23.59,24.688 -8.55,5.191 -18.36,7.812 -29.37,7.812 -15.63,0 -28.09,-4.062 -37.35,-12.191 -9.18,-8.121 -13.75,-19.059 -13.75,-32.809 0,-21.492 20.16,-41.492 60.47,-60 3.13,-1.492 5.55,-2.621 7.34,-3.441 35.32,-16.25 59.57,-32.192 72.82,-47.809 13.2,-15.551 19.84,-34.922 19.84,-58.133 0,-33.8591 -10.7,-60.7771 -32.03,-80.7771 -21.37,-19.9218 -50.16,-29.8398 -86.41,-29.8398 -30.43,0 -55.39,6.9883 -74.84,20.9375 -19.49,14.0625 -32.27,34.1016 -38.28,60.1523 z m 472.38,43.4371 c 0,21.454 -6.95,39.614 -20.78,54.532 -13.75,14.879 -30.63,22.351 -50.63,22.351 -19.92,0 -36.83,-7.472 -50.78,-22.351 -13.86,-14.918 -20.78,-33.078 -20.78,-54.532 0,-21.476 6.92,-39.648 20.78,-54.5269 13.95,-14.9219 30.86,-22.3399 50.78,-22.3399 19.77,0 36.61,7.418 50.47,22.3399 13.95,14.8789 20.94,33.0509 20.94,54.5269 z m -198.91,0.473 c 0,16.949 3.17,32.969 9.54,47.969 6.44,15.082 15.7,28.469 27.81,40.148 11.87,11.571 25.51,20.391 40.94,26.571 15.5,6.25 31.75,9.371 48.75,9.371 17.38,0 33.75,-3.121 49.06,-9.371 15.39,-6.18 29.22,-15.278 41.4,-27.348 12.19,-11.871 21.45,-25.313 27.82,-40.313 6.32,-14.918 9.53,-30.589 9.53,-47.027 0,-17.109 -3.13,-33.133 -9.38,-48.1327 -6.25,-14.918 -15.43,-28.1172 -27.5,-39.6797 -12.73,-12.3086 -26.79,-21.5703 -42.18,-27.8203 -15.43,-6.25 -31.68,-9.3672 -48.75,-9.3672 -16.8,0 -32.93,3.1172 -48.44,9.3672 -15.43,6.25 -29.18,15.3203 -41.25,27.1914 -12.19,12.0703 -21.49,25.6289 -27.81,40.6289 -6.37,15.0004 -9.54,30.9294 -9.54,47.8124 z m 318.32,-115.4726 0,184.9996 -40.46,0 0,46.411 40.46,0 0,62.031 c 0,30.699 6.41,53.441 19.22,68.121 12.82,14.687 32.58,22.027 59.38,22.027 5.7,0 11.6,-0.429 17.65,-1.25 6.02,-0.859 12.11,-2.136 18.29,-3.898 l 0,-47.809 c -4.3,2.379 -8.56,4.207 -12.82,5.457 -4.29,1.25 -8.67,1.883 -13.12,1.883 -12.62,0 -21.72,-3.91 -27.35,-11.723 -5.54,-7.808 -8.28,-21.046 -8.28,-39.687 l 0,-55.152 55.78,0 0,-46.411 -55.78,0 0,-184.9996 -52.97,0 z m 158.48,0 0,184.9996 -40.47,0 0,46.411 40.47,0 0,87.652 52.97,0 0,-87.652 40.62,0 0,-46.411 -40.62,0 0,-184.9996 -52.97,0 z M 3642.89,9.98828 3589.3,130.309 c -4.07,9.25 -7.42,17.5 -10,24.679 -2.62,7.274 -4.96,14.461 -7.03,21.571 -3.56,-10.629 -6.72,-19.77 -9.54,-27.348 -2.73,-7.5 -4.92,-13.121 -6.56,-16.871 l -55,-122.35172 -119.84,245.32072 56.4,0 52.04,-111.571 c 2.07,-4.679 4.1,-11.168 6.09,-19.367 2.07,-8.242 3.83,-17.312 5.31,-27.1913 0.2,5.8203 1.17,11.9223 2.97,18.2813 1.76,6.328 4.77,14.141 9.06,23.437 l 56.57,125 4.53,0 57.5,-125 c 3.63,-7.808 6.29,-15.078 7.97,-21.718 1.64,-6.68 2.69,-13.36 3.12,-20.0003 1.45,8.7503 3.28,17.0313 5.47,24.8513 2.26,7.809 4.92,14.879 7.97,21.25 l 50.94,112.028 55.93,0 L 3642.89,9.98828 z m 371.25,13.91012 -52.97,0 0,30 c -9.49,-13.3593 -20.55,-23.2773 -33.12,-29.8398 -12.62,-6.4492 -27.03,-9.6875 -43.28,-9.6875 -32.74,0 -58.52,11.168 -77.35,33.5898 -18.75,22.3907 -28.12,53.0081 -28.12,91.8791 0,36.949 9.57,66.789 28.75,89.531 19.25,22.688 44.37,34.059 75.31,34.059 18.83,0 35,-3.981 48.44,-11.871 13.43,-7.93 23.2,-19.297 29.37,-34.071 l 0,37.821 52.97,0 0,-231.4106 z m -51.56,116.4106 c 0,23.941 -5.59,42.57 -16.72,55.929 -11.17,13.321 -26.72,20 -46.72,20 -20,0 -35.74,-6.867 -47.19,-20.617 -11.48,-13.75 -17.18,-32.812 -17.18,-57.191 0,-24.61 5.5,-43.5511 16.56,-56.8714 11.01,-13.3594 26.64,-20 46.87,-20 19.07,0 34.53,7.2226 46.41,21.7226 11.95,14.4493 17.97,33.4688 17.97,57.0278 z m 178.71,78.121 c 5.7,15.308 13.28,26.601 22.66,33.91 9.37,7.379 20.97,11.09 34.84,11.09 7.5,0 14.84,-0.942 22.03,-2.809 7.27,-1.801 14.41,-4.34 21.41,-7.66 l -19.07,-45 c -4.61,3.211 -9.53,5.629 -14.84,7.187 -5.23,1.563 -11.09,2.34 -17.66,2.34 -17.61,0 -30.27,-7.027 -37.96,-21.09 -7.62,-14.058 -11.41,-37.726 -11.41,-70.937 l 0,-101.5626 -52.97,0 0,231.8826 52.97,0 0,-37.351 z m 353.59,-86.559 -185,0 c 1.25,-21.68 7.66,-38.5898 19.22,-50.7812 11.56,-12.1093 26.92,-18.1289 46.1,-18.1289 17.07,0 31.28,3.5977 42.65,10.7774 11.45,7.1914 21.41,18.75 29.85,34.6917 l 44.68,-25.0003 c -13.04,-23.2383 -29.14,-40.5781 -48.28,-52.0313 -19.18,-11.3281 -41.72,-17.0273 -67.65,-17.0273 -37.11,0 -66.65,11.2891 -88.6,33.9101 -21.99,22.5704 -32.97,52.8088 -32.97,90.6168 0,36.25 11.33,66.024 34.07,89.383 22.69,23.43 51.87,35.149 87.5,35.149 37.26,0 66.32,-10.7 87.18,-32.032 20.82,-21.367 31.25,-51.207 31.25,-89.527 l 0,-10 z m -55,35.617 c -2.11,16.571 -8.43,29.141 -19.06,37.821 -10.55,8.75 -25,13.121 -43.44,13.121 -17.42,0 -31.4,-4.219 -42.03,-12.649 -10.55,-8.441 -17.93,-21.222 -22.19,-38.293"
         inkscape:connector-curvature="0"
         id="path18"
         style="fill:#0c2577;fill-opacity:1;fill-rule:nonzero;stroke:none" /></g></g></svg>